<svg width="19" height="16" viewBox="0 0 19 16" fill="none" xmlns="http://www.w3.org/2000/svg">
<path fill-rule="evenodd" clip-rule="evenodd" d="M1.69216 2.75757C1.80483 2.23187 2.27569 1.83325 2.83321 1.83325H16.1665C16.7241 1.83325 17.1949 2.23187 17.3076 2.75757L9.49988 8.22298L1.69216 2.75757ZM0.666561 2.99194C0.66649 2.99666 0.666485 3.00138 0.666547 3.00609V12.9999C0.666547 14.1927 1.6404 15.1666 2.83321 15.1666H16.1665C17.3594 15.1666 18.3332 14.1927 18.3332 12.9999V3.00601M17.3332 3.9603V12.9999C17.3332 13.6404 16.8071 14.1666 16.1665 14.1666H2.83321C2.19269 14.1666 1.66655 13.6404 1.66655 12.9999V3.9603L9.21315 9.24292C9.38531 9.36343 9.61445 9.36343 9.78661 9.24292L17.3332 3.9603ZM18.3332 2.99205C18.3289 1.80283 17.3567 0.833252 16.1665 0.833252H2.83321C1.64306 0.833252 0.67089 1.80277 0.666561 2.99194" fill="white"/>
</svg>