<svg width="195" height="60" viewBox="0 0 195 60" fill="none" xmlns="http://www.w3.org/2000/svg">
<path d="M22.4961 32.7576C22.4961 29.0117 25.1344 26.2874 28.8796 26.2874C32.3187 26.2874 34.816 28.5009 35.0512 31.6628H32.0834C31.824 30.1305 30.5761 29.0841 28.9037 29.0841C26.9018 29.0841 25.5823 30.5681 25.5823 32.7568C25.5823 34.9454 26.9018 36.4294 28.9037 36.4294C30.5761 36.4294 31.8248 35.4079 32.0834 33.8024H35.0512C34.8393 36.9643 32.3187 39.227 28.8562 39.227C25.1578 39.227 22.4961 36.5509 22.4961 32.7568V32.7576Z" fill="black"/>
<path d="M35.8516 32.7576C35.8516 28.9876 38.5366 26.2874 42.2826 26.2874C46.0285 26.2874 48.7136 28.9876 48.7136 32.7576C48.7136 36.5275 46.0519 39.2277 42.2826 39.2277C38.5132 39.2277 35.8516 36.5517 35.8516 32.7576ZM45.6274 32.7576C45.6274 30.544 44.3079 29.0849 42.2826 29.0849C40.2573 29.0849 38.9378 30.544 38.9378 32.7576C38.9378 34.9711 40.2807 36.4302 42.2826 36.4302C44.2845 36.4302 45.6274 34.9953 45.6274 32.7576Z" fill="black"/>
<path d="M50.3633 38.9116V26.6035H53.2843V28.0875H53.4728C54.1092 26.8472 55.2395 26.2874 56.6058 26.2874C58.0897 26.2874 59.2207 27.0418 59.8096 28.3795H59.9981C60.728 26.9445 61.9299 26.2874 63.4847 26.2874C66.0053 26.2874 67.4893 27.966 67.4893 30.7386V38.9116H64.5448V31.3958C64.5448 29.8876 63.7674 29.0607 62.472 29.0607C61.1766 29.0607 60.3759 29.9118 60.3759 31.3958V38.9116H57.4548V31.3958C57.4548 29.8876 56.6774 29.0607 55.382 29.0607C54.0866 29.0607 53.2858 29.9118 53.2858 31.3958V38.9116H50.3648H50.3633Z" fill="black"/>
<path d="M69.6328 43.7763V26.6035H72.5539V28.4768H72.7424C73.5431 26.9686 75.1213 26.2874 76.7703 26.2874C80.1627 26.2874 82.5416 28.9634 82.5416 32.7576C82.5416 36.5517 80.1627 39.2277 76.7703 39.2277C75.1213 39.2277 73.5431 38.5465 72.7424 37.0383H72.5539V43.7763H69.6328ZM79.4554 32.7576C79.4554 30.4957 78.0891 29.06 75.9929 29.06C73.8968 29.06 72.5539 30.4949 72.5539 32.7576C72.5539 35.0202 73.9202 36.4551 75.9929 36.4551C78.0657 36.4551 79.4554 34.996 79.4554 32.7576Z" fill="black"/>
<path d="M84.2109 38.9121V26.6039H87.132V28.6469H87.3205C87.7684 27.0656 88.5925 26.4824 90.3592 26.4824H90.8772V29.4987H89.2757C87.7209 29.4987 87.132 30.6176 87.132 32.2472V38.9121H84.2109Z" fill="black"/>
<path d="M103.624 33.5362H94.2958C94.5552 35.5068 95.7797 36.6257 97.6881 36.6257C99.3605 36.6257 100.35 35.7256 100.586 34.8497H103.483C103.154 37.2088 100.892 39.2277 97.5946 39.2277C93.8962 39.2277 91.2812 36.5275 91.2812 32.7334C91.2812 28.9393 93.8962 26.2874 97.5237 26.2874C101.434 26.2874 104.19 29.3769 103.624 33.5362H103.624ZM94.3901 31.3958H100.821C100.444 29.8144 99.2663 28.8902 97.5705 28.8902C95.8747 28.8902 94.7912 29.8144 94.3901 31.3958Z" fill="black"/>
<path d="M104.586 32.7576C104.586 28.9876 107.271 26.2874 111.017 26.2874C114.763 26.2874 117.448 28.9876 117.448 32.7576C117.448 36.5275 114.786 39.2277 111.017 39.2277C107.248 39.2277 104.586 36.5517 104.586 32.7576ZM114.362 32.7576C114.362 30.544 113.042 29.0849 111.017 29.0849C108.992 29.0849 107.672 30.544 107.672 32.7576C107.672 34.9711 109.015 36.4302 111.017 36.4302C113.019 36.4302 114.362 34.9953 114.362 32.7576Z" fill="black"/>
<path d="M118.484 32.7576C118.484 28.9876 120.84 26.2874 124.232 26.2874C125.881 26.2874 127.459 26.9686 128.284 28.4768H128.449V26.6035H131.393V38.9116H128.449V37.0383H128.284C127.459 38.5465 125.905 39.2277 124.232 39.2277C120.84 39.2277 118.484 36.5517 118.484 32.7576ZM128.449 32.7576C128.449 30.5198 127.106 29.06 125.01 29.06C122.913 29.06 121.547 30.5191 121.547 32.7576C121.547 34.996 122.913 36.4551 125.01 36.4551C127.106 36.4551 128.449 35.0202 128.449 32.7576Z" fill="black"/>
<path d="M133.75 38.9121V21.8848H136.671V38.9121H133.75Z" fill="black"/>
<path d="M148.374 43.7763V37.0383H148.209C147.385 38.5465 145.83 39.2277 144.158 39.2277C140.766 39.2277 138.41 36.5517 138.41 32.7576C138.41 28.9634 140.766 26.2874 144.158 26.2874C145.807 26.2874 147.385 26.9686 148.209 28.4768H148.374V26.6035H151.319V43.7763H148.374ZM148.374 32.7576C148.374 30.5198 147.032 29.06 144.935 29.06C142.839 29.06 141.473 30.5191 141.473 32.7576C141.473 34.996 142.839 36.4551 144.935 36.4551C147.032 36.4551 148.374 35.0202 148.374 32.7576Z" fill="black"/>
<path d="M153.485 34.4111V26.6033H156.406V33.7057C156.406 35.4817 157.301 36.4542 158.856 36.4542C160.411 36.4542 161.329 35.4568 161.329 33.7057V26.6033H164.25V38.9114H161.329V37.2328H161.141C160.434 38.6436 159.115 39.2276 157.654 39.2276C155.063 39.2276 153.484 37.4033 153.484 34.4111H153.485Z" fill="black"/>
<path d="M166.492 24.7552V21.9094H169.508V24.7552H166.492ZM166.539 38.9118V26.6036H169.46V38.9118H166.539Z" fill="black"/>
<path d="M171.812 38.9118V21.8845H174.734V38.9118H171.812Z" fill="black"/>
<path d="M188.776 33.5362H179.448C179.708 35.5068 180.932 36.6257 182.84 36.6257C184.513 36.6257 185.502 35.7256 185.738 34.8497H188.636C188.306 37.2088 186.044 39.2277 182.747 39.2277C179.049 39.2277 176.434 36.5275 176.434 32.7334C176.434 28.9393 179.049 26.2874 182.676 26.2874C186.586 26.2874 189.342 29.3769 188.777 33.5362H188.776ZM179.542 31.3958H185.973C185.596 29.8144 184.419 28.8902 182.723 28.8902C181.027 28.8902 179.944 29.8144 179.542 31.3958Z" fill="black"/>
<path d="M7.19588 33.6264C6.5987 33.8499 6.56251 34.7079 7.13858 34.9835L9.41193 36.0728C9.5831 36.1545 9.7799 36.1631 9.95709 36.0961L15.3566 34.0445V30.5774L7.19513 33.6272L7.19588 33.6264Z" fill="#FF5500"/>
<path d="M13.1542 36.5037C12.5585 36.7295 12.5246 37.5868 13.1014 37.8608L15.3552 38.9322V35.6714L13.1542 36.5037Z" fill="#FF5500"/>
<path d="M19.4412 18.5536C19.4412 15.3013 16.8277 12.679 13.6511 12.8044C10.7489 12.9188 8.39106 15.3714 8.29982 18.3683C8.21688 21.1019 9.98203 23.4237 12.4017 24.1042V26.609L7.21932 28.5462C6.62214 28.7696 6.58595 29.6276 7.16201 29.9033L9.43537 30.9925C9.60653 31.0751 9.80333 31.0829 9.98053 31.0159L15.3567 28.9736V24.0988C17.7115 23.4261 19.4412 21.1993 19.4412 18.5544V18.5536ZM13.8743 21.2631C12.4333 21.2631 11.2654 20.0571 11.2654 18.5691C11.2654 17.0812 12.4333 15.8752 13.8743 15.8752C15.3152 15.8752 16.4832 17.0812 16.4832 18.5691C16.4832 20.0571 15.3152 21.2631 13.8743 21.2631Z" fill="#FF5500"/>
</svg>