<svg width="21" height="22" viewBox="0 0 21 22" fill="none" xmlns="http://www.w3.org/2000/svg">
<path d="M21 10.7299C21 16.3793 16.3846 20.959 10.69 20.959C8.8829 20.959 7.18535 20.4968 5.7076 19.6874L0 21.5L1.86053 16.0102C0.922392 14.4694 0.382105 12.6602 0.382105 10.7292C0.382789 5.07978 4.9968 0.5 10.6914 0.5C16.3853 0.50137 21 5.08046 21 10.7299ZM10.6893 2.13113C5.91029 2.13113 2.02283 5.98916 2.02283 10.7319C2.02283 12.6137 2.63638 14.3557 3.67382 15.7732L2.59187 18.9663L5.92125 17.9084C7.2908 18.8068 8.92947 19.3299 10.6893 19.3299C15.4684 19.3299 19.3572 15.4726 19.3572 10.7299C19.3586 5.98916 15.4691 2.13113 10.6893 2.13113ZM15.8964 13.0862C15.832 12.9828 15.6635 12.9198 15.4116 12.7938C15.1602 12.6678 13.916 12.0617 13.6852 11.9796C13.4524 11.8953 13.284 11.8529 13.1155 12.1042C12.9491 12.3555 12.4643 12.9198 12.3157 13.0882C12.1685 13.256 12.0212 13.2772 11.7685 13.1533C11.5159 13.0259 10.701 12.763 9.73545 11.909C8.98425 11.2434 8.47683 10.4238 8.33029 10.1724C8.18169 9.92182 8.31522 9.78624 8.44054 9.66161C8.55353 9.54862 8.69322 9.36852 8.8199 9.2213C8.94659 9.07544 8.98836 8.97204 9.07259 8.80427C9.15544 8.6365 9.11367 8.49064 9.05136 8.36396C8.98836 8.23796 8.48368 7.00536 8.27208 6.50342C8.06186 6.00217 7.85163 6.08503 7.70372 6.08503C7.55649 6.08503 7.38804 6.06448 7.21958 6.06448C7.05113 6.06448 6.77722 6.12543 6.54645 6.37674C6.31568 6.62805 5.66241 7.23408 5.66241 8.46804C5.66241 9.70338 6.56699 10.8942 6.69368 11.0613C6.82105 11.2277 8.44259 13.8428 11.0112 14.8467C13.5811 15.8499 13.5811 15.5151 14.0441 15.4726C14.5083 15.4302 15.5396 14.8666 15.7491 14.2818C15.9601 13.6942 15.9601 13.1909 15.8964 13.0862Z" fill="white"/>
</svg>
